<svg width="20" height="21" viewBox="0 0 20 21" fill="none" xmlns="http://www.w3.org/2000/svg">
<g clip-path="url(#clip0_1606_19605)">
<g clip-path="url(#clip1_1606_19605)">
<path fill-rule="evenodd" clip-rule="evenodd" d="M0 10.2781C0 4.75516 4.47708 0.278076 10 0.278076C15.5229 0.278076 20.0012 4.75427 20.0012 10.2772C20.0012 15.8001 15.5241 20.2772 10.0012 20.2772C8.68176 20.2789 7.37511 20.0187 6.15706 19.5114L9.36288 13.0998L4.1055 18.3572C1.61672 16.5379 0 13.5968 0 10.2781ZM16.2876 12.1576V9.53782C16.2876 8.18273 15.6283 7.67693 14.6795 7.67853C14.412 7.67494 14.147 7.73042 13.9035 7.841C13.6599 7.95159 13.4437 8.11456 13.2704 8.31828H13.2524V7.7493H12.0689V12.1576H13.2524V9.93526C13.2524 9.14917 13.659 8.73372 14.2552 8.73372C14.8062 8.73372 15.1041 8.99602 15.1041 9.8357V12.1576H16.2876ZM11.6987 11.4344C11.3192 11.877 10.6419 12.2293 9.75624 12.2293C8.44634 12.2293 7.48911 11.3096 7.48911 9.95296C7.48911 8.59628 8.44634 7.67662 9.81102 7.67662C10.5151 7.67662 11.2381 7.95652 11.6807 8.5163L10.8854 9.20284C10.7591 9.05363 10.6014 8.93418 10.4235 8.85303C10.2457 8.77188 10.0521 8.73104 9.8566 8.73342C9.15247 8.73342 8.68265 9.23043 8.68265 9.94416C8.68265 10.6667 9.17046 11.1725 9.8658 11.1725C10.0597 11.1747 10.2519 11.1356 10.4295 11.0577C10.6072 10.9798 10.7661 10.8649 10.8958 10.7207L11.6987 11.4344ZM5.26738 11.1904V11.1724L7.42616 8.54381V7.74891H3.86711V8.71535H5.83636V8.72454L3.71357 11.3531V12.1572H7.38097V11.1904H5.26738Z" fill="#202127"/>
</g>
</g>
<defs>
<clipPath id="clip0_1606_19605">
<rect width="20" height="20" fill="white" transform="translate(0 0.277344)"/>
</clipPath>
<clipPath id="clip1_1606_19605">
<rect width="20" height="20" fill="white" transform="translate(0 0.277344)"/>
</clipPath>
</defs>
</svg>
